<svg id="visual" viewBox="0 0 900 675" width="900" height="675" xmlns="http://www.w3.org/2000/svg" xmlns:xlink="http://www.w3.org/1999/xlink" version="1.1"><rect x="0" y="0" width="900" height="675" fill="#ffffff"></rect><defs><linearGradient id="grad1_0" x1="25%" y1="0%" x2="100%" y2="100%"><stop offset="23.333333333333336%" stop-color="#fbae3c" stop-opacity="1"></stop><stop offset="76.66666666666666%" stop-color="#fbae3c" stop-opacity="1"></stop></linearGradient></defs><defs><linearGradient id="grad1_1" x1="25%" y1="0%" x2="100%" y2="100%"><stop offset="23.333333333333336%" stop-color="#fbae3c" stop-opacity="1"></stop><stop offset="76.66666666666666%" stop-color="#ffc880" stop-opacity="1"></stop></linearGradient></defs><defs><linearGradient id="grad1_2" x1="25%" y1="0%" x2="100%" y2="100%"><stop offset="23.333333333333336%" stop-color="#ffe3bf" stop-opacity="1"></stop><stop offset="76.66666666666666%" stop-color="#ffc880" stop-opacity="1"></stop></linearGradient></defs><defs><linearGradient id="grad1_3" x1="25%" y1="0%" x2="100%" y2="100%"><stop offset="23.333333333333336%" stop-color="#ffe3bf" stop-opacity="1"></stop><stop offset="76.66666666666666%" stop-color="#ffffff" stop-opacity="1"></stop></linearGradient></defs><defs><linearGradient id="grad2_0" x1="0%" y1="0%" x2="75%" y2="100%"><stop offset="23.333333333333336%" stop-color="#fbae3c" stop-opacity="1"></stop><stop offset="76.66666666666666%" stop-color="#fbae3c" stop-opacity="1"></stop></linearGradient></defs><defs><linearGradient id="grad2_1" x1="0%" y1="0%" x2="75%" y2="100%"><stop offset="23.333333333333336%" stop-color="#ffc880" stop-opacity="1"></stop><stop offset="76.66666666666666%" stop-color="#fbae3c" stop-opacity="1"></stop></linearGradient></defs><defs><linearGradient id="grad2_2" x1="0%" y1="0%" x2="75%" y2="100%"><stop offset="23.333333333333336%" stop-color="#ffc880" stop-opacity="1"></stop><stop offset="76.66666666666666%" stop-color="#ffe3bf" stop-opacity="1"></stop></linearGradient></defs><defs><linearGradient id="grad2_3" x1="0%" y1="0%" x2="75%" y2="100%"><stop offset="23.333333333333336%" stop-color="#ffffff" stop-opacity="1"></stop><stop offset="76.66666666666666%" stop-color="#ffe3bf" stop-opacity="1"></stop></linearGradient></defs><g transform="translate(900, 0)"><path d="M0 450C-65.5 416.1 -131 382.3 -201.5 349C-272 315.7 -347.5 283.1 -389.7 225C-432 166.9 -441 83.5 -450 0L0 0Z" fill="#fff1df"></path><path d="M0 337.5C-49.1 312.1 -98.3 286.7 -151.1 261.8C-204 236.8 -260.6 212.3 -292.3 168.8C-324 125.2 -330.7 62.6 -337.5 0L0 0Z" fill="#ffd69f"></path><path d="M0 225C-32.8 208.1 -65.5 191.1 -100.7 174.5C-136 157.9 -173.7 141.5 -194.9 112.5C-216 83.5 -220.5 41.7 -225 0L0 0Z" fill="#ffbb5f"></path><path d="M0 112.5C-16.4 104 -32.8 95.6 -50.4 87.3C-68 78.9 -86.9 70.8 -97.4 56.3C-108 41.7 -110.2 20.9 -112.5 0L0 0Z" fill="#fbae3c"></path></g><g transform="translate(0, 675)"><path d="M0 -450C39.1 -370.4 78.2 -290.8 152 -263.3C225.8 -235.7 334.3 -260.2 389.7 -225C445.2 -189.8 447.6 -94.9 450 0L0 0Z" fill="#fff1df"></path><path d="M0 -337.5C29.3 -277.8 58.7 -218.1 114 -197.5C169.3 -176.8 250.7 -195.2 292.3 -168.8C333.9 -142.3 335.7 -71.2 337.5 0L0 0Z" fill="#ffd69f"></path><path d="M0 -225C19.6 -185.2 39.1 -145.4 76 -131.6C112.9 -117.9 167.1 -130.1 194.9 -112.5C222.6 -94.9 223.8 -47.4 225 0L0 0Z" fill="#ffbb5f"></path><path d="M0 -112.5C9.8 -92.6 19.6 -72.7 38 -65.8C56.4 -58.9 83.6 -65.1 97.4 -56.3C111.3 -47.4 111.9 -23.7 112.5 0L0 0Z" fill="#fbae3c"></path></g></svg>